<?xml version="1.0" standalone="no"?>
<!DOCTYPE svg PUBLIC "-//W3C//DTD SVG 20010904//EN"
 "http://www.w3.org/TR/2001/REC-SVG-20010904/DTD/svg10.dtd">
<svg version="1.0" xmlns="http://www.w3.org/2000/svg"
 width="700.000000pt" height="700.000000pt" viewBox="0 0 700.000000 700.000000"
 preserveAspectRatio="xMidYMid meet">
<metadata>
Created by potrace 1.11, written by Peter Selinger 2001-2013
</metadata>
<g transform="translate(0.000000,700.000000) scale(0.100000,-0.100000)"
fill="#000000" stroke="none">
<path d="M1540 6490 c-51 -9 -121 -44 -149 -74 -51 -54 -29 -146 44 -180 40
-19 53 -18 132 12 80 31 159 23 228 -24 130 -86 239 -256 322 -503 36 -106 39
-118 53 -186 l8 -40 -20 25 c-102 126 -318 316 -453 397 -69 42 -212 105 -280
123 -100 27 -267 35 -346 16 -249 -58 -410 -278 -474 -650 -36 -209 -24 -430
31 -601 66 -202 109 -299 189 -420 147 -222 349 -342 588 -350 43 -2 80 -5 83
-7 2 -3 -5 -31 -17 -64 -76 -221 -84 -416 -21 -540 76 -150 382 -264 572 -215
131 34 257 111 344 210 12 12 31 34 44 48 12 14 30 36 39 49 19 30 27 30 40 2
17 -37 119 -143 183 -192 33 -24 57 -47 53 -49 -5 -2 -39 -14 -78 -27 -174
-55 -377 -163 -530 -281 -83 -65 -256 -252 -317 -344 -133 -200 -173 -317
-171 -505 1 -183 49 -352 151 -537 180 -327 498 -583 897 -727 56 -19 110 -37
120 -39 11 -2 38 -9 60 -15 22 -6 51 -13 65 -16 14 -2 61 -11 105 -20 44 -8
105 -18 135 -21 30 -3 75 -8 100 -12 25 -3 149 -7 275 -8 194 -2 245 -6 325
-24 97 -22 225 -45 315 -56 28 -4 77 -10 110 -15 82 -10 406 -10 484 1 91 13
101 15 188 39 129 35 219 85 298 165 115 116 158 228 159 415 1 104 -2 120
-25 170 -29 62 -83 121 -127 141 l-30 13 22 17 c101 79 143 67 423 -117 293
-192 384 -227 598 -227 89 0 119 4 156 20 89 39 121 100 114 217 -4 82 -22
143 -93 326 -73 189 -86 233 -77 279 4 20 34 103 67 185 33 82 70 189 83 239
58 231 -17 338 -239 339 -240 1 -429 -81 -706 -307 -123 -101 -216 -150 -263
-141 -34 7 -51 20 -105 78 l-34 36 62 31 c74 38 114 78 148 151 22 47 26 69
27 150 0 118 -7 168 -36 245 -70 189 -224 310 -464 366 -120 28 -183 34 -380
34 -238 0 -316 -7 -550 -51 -177 -34 -170 -32 -262 -54 -58 -14 -110 -20 -177
-18 l-94 2 22 36 c42 67 51 111 49 240 -1 96 -25 216 -63 321 -11 29 -18 55
-15 57 2 2 39 6 82 7 91 4 126 10 191 31 201 67 349 206 470 439 41 80 56 116
107 270 56 166 56 171 60 350 10 420 -129 759 -361 882 -92 49 -179 66 -299
60 -285 -16 -566 -176 -862 -491 -62 -66 -90 -90 -86 -75 86 372 239 647 411
739 57 30 171 34 212 7 84 -55 193 -2 193 94 0 54 -24 84 -96 121 -59 30 -67
31 -177 30 -85 -1 -132 -6 -181 -21 -197 -62 -386 -275 -512 -581 -52 -126
-107 -318 -122 -430 -4 -25 -8 -46 -9 -48 -2 -1 -9 26 -16 60 -23 115 -108
356 -165 470 -74 148 -83 163 -137 239 -101 142 -239 253 -358 289 -68 21
-201 31 -260 20z m1055 -4010 c112 -54 175 -159 171 -285 -4 -117 -65 -211
-172 -265 -71 -36 -188 -35 -260 2 -62 33 -117 88 -146 148 -33 68 -32 189 2
256 33 65 102 130 164 153 72 27 174 23 241 -9z"/>
</g>
</svg>
