<?xml version="1.0" encoding="UTF-8" standalone="no"?>
<!DOCTYPE svg PUBLIC "-//W3C//DTD SVG 1.1//EN" "http://www.w3.org/Graphics/SVG/1.1/DTD/svg11.dtd">
<svg width="100%" height="100%" viewBox="0 0 20 25" version="1.1" xmlns="http://www.w3.org/2000/svg" xmlns:xlink="http://www.w3.org/1999/xlink" xml:space="preserve" xmlns:serif="http://www.serif.com/" style="fill-rule:evenodd;clip-rule:evenodd;stroke-linejoin:round;stroke-miterlimit:2;">
    <g transform="matrix(1,0,0,1,-699.092,-994.059)">
        <g>
            <path d="M714.192,996.66C714.188,996.395 714.114,995.365 712.407,994.954C709.706,994.303 708.658,995.994 708.305,996.98C708.163,997.378 707.904,999.16 708.187,1000.55C707.679,1000.54 707.296,1001.69 707.481,1001.72C700.577,1003.43 699.35,1010.99 699.991,1012.79C701.368,1016.64 706.12,1018.86 712.707,1017.31C717.76,1016.13 719.203,1011.67 716.935,1006.99C717.146,1006.82 717.483,1006.57 717.605,1006.3C717.692,1006.1 714.967,1003.08 713.843,1002.75L713.853,1001.67C714.004,1001.67 716.872,1001.73 716.256,999.022C716.065,998.184 715.434,997.683 714.574,997.552C714.349,997.519 714.185,997.324 714.191,997.097C714.187,996.912 714.193,996.741 714.192,996.66Z" style="fill:rgb(255,206,143);"/>
            <path d="M707.366,1000.14C707.207,998.705 707.459,997.117 707.599,996.727C707.86,995.999 708.442,994.969 709.573,994.426C710.309,994.073 711.286,993.912 712.583,994.225C713.695,994.493 714.256,994.995 714.558,995.44C714.91,995.959 714.939,996.449 714.942,996.65L714.941,996.859C715.993,997.097 716.744,997.786 716.987,998.855C717.235,999.945 717.019,1000.69 716.65,1001.22C716.297,1001.72 715.777,1002.03 715.261,1002.2C715.068,1002.27 714.877,1002.31 714.701,1002.35C714.949,1002.5 715.219,1002.69 715.496,1002.92C716.616,1003.85 717.902,1005.3 718.191,1005.77C718.436,1006.17 718.339,1006.5 718.289,1006.61C718.199,1006.81 718.032,1007.01 717.851,1007.19C718.87,1009.55 718.987,1011.85 718.267,1013.73C717.478,1015.78 715.691,1017.38 712.878,1018.04C705.809,1019.71 700.762,1017.18 699.285,1013.04C699.066,1012.43 699.004,1011.22 699.285,1009.78C699.881,1006.73 701.965,1002.58 706.771,1001.14C706.876,1000.81 707.072,1000.42 707.324,1000.18L707.366,1000.14ZM707.64,1000.99C707.456,1001.32 707.374,1001.7 707.481,1001.72C700.577,1003.43 699.35,1010.99 699.991,1012.79C701.368,1016.64 706.12,1018.86 712.707,1017.31C717.76,1016.13 719.203,1011.67 716.935,1006.99C717.146,1006.82 717.483,1006.57 717.605,1006.3C717.692,1006.1 714.967,1003.08 713.843,1002.75L713.853,1001.67C714.004,1001.67 716.872,1001.73 716.256,999.022C716.065,998.184 715.434,997.683 714.574,997.552C714.349,997.519 714.185,997.324 714.191,997.097C714.187,996.912 714.193,996.741 714.192,996.66C714.188,996.395 714.114,995.365 712.407,994.954C709.706,994.303 708.658,995.994 708.305,996.98C708.163,997.378 707.904,999.16 708.187,1000.55C707.971,1000.55 707.777,1000.75 707.64,1000.99L707.625,1000.99L707.64,1000.99Z" style="fill:rgb(123,90,76);"/>
            <path d="M714.192,996.66C714.192,996.66 712.563,997.71 712.555,998.998C713.931,998.174 714.528,998.872 714.667,999.361C714.805,999.85 714.65,1000.4 713.544,1000.72C713.424,1000.98 713.377,1001.46 713.401,1001.74C713.499,1002.88 713.526,1003.24 713.68,1003.6C716.368,1009.73 715.875,1011.72 713.827,1013.59C710.194,1016.92 703.183,1015.8 699.991,1012.79C701.368,1016.64 706.12,1018.86 712.707,1017.31C719.294,1015.77 719.746,1008.65 713.843,1002.75L713.853,1001.67C714.004,1001.67 716.872,1001.73 716.256,999.022C716.065,998.183 715.432,997.682 714.572,997.551C714.346,997.519 714.181,997.322 714.188,997.094C714.184,996.878 714.192,996.66 714.192,996.66Z" style="fill:rgb(245,179,117);"/>
            <path d="M713.545,1000.72C713.449,1000.93 713.383,1001.51 713.4,1001.73C712.817,1001.59 712.575,1001.67 712.432,1001.78L708.688,1000.63C708.98,999.684 711.589,1000.95 712.761,1001.58C712.828,1001.3 713.277,1000.81 713.545,1000.72Z" style="fill:rgb(230,161,98);"/>
            <path d="M707.308,1001.45C707.293,1001.64 707.292,1001.71 707.528,1001.73C709.025,1001.86 711.676,1002.76 712.295,1002.97L712.354,1002.68C710.743,1002.16 709.221,1001.7 707.308,1001.45Z" style="fill:rgb(201,58,40);"/>
            <path d="M708.184,1000.55C707.985,1000.5 707.358,1000.66 707.308,1001.45C709.168,1001.74 711.083,1002.16 712.207,1002.79C712.403,1002.9 712.357,1003.01 712.49,1003.18C713.385,1004.31 713.726,1005.62 713.845,1007.25C713.852,1007.34 713.936,1007.42 714.035,1007.41C714.412,1007.4 714.677,1007.35 714.861,1007.3C715.018,1007.28 715.126,1007.13 715.103,1006.97C714.884,1005.49 714.551,1004.08 713.212,1003.17C712.794,1002.88 712.913,1002.04 712.421,1001.77C711.223,1001.12 710.157,1000.98 708.184,1000.55Z" style="fill:rgb(226,84,62);"/>
            <path d="M713.081,1003.14C713.081,1003.14 713.665,1003.75 713.769,1004.31C714.018,1003.83 713.183,1003.18 713.183,1003.18L712.46,1002.09C712.29,1002.08 712.101,1002.08 711.868,1002.13C711.976,1002.2 712.116,1002.2 712.285,1002.21L713.081,1003.14Z" style="fill:rgb(204,60,36);"/>
            <path d="M712.416,1003.12C712.318,1003.11 712.238,1003.03 712.223,1002.94C712.189,1002.69 712.18,1002.45 712.201,1002.2C712.214,1002.04 712.291,1001.89 712.414,1001.79C712.537,1001.69 712.696,1001.64 712.855,1001.65C713.18,1001.66 713.463,1001.68 713.615,1001.84C713.621,1001.85 713.63,1001.85 713.64,1001.85C713.649,1001.85 713.66,1001.85 713.674,1001.85C713.78,1001.85 713.865,1001.94 713.865,1002.05C713.864,1002.19 713.863,1002.39 713.863,1002.53C713.863,1002.67 713.944,1002.79 714.069,1002.84C715.262,1003.38 716.704,1004.92 717.612,1006.19C717.676,1006.28 717.662,1006.4 717.581,1006.47C717.4,1006.64 717.09,1006.92 716.904,1007.09C716.868,1007.12 716.818,1007.14 716.77,1007.13C716.722,1007.12 716.681,1007.09 716.66,1007.04C715.943,1005.56 714.8,1004.35 713.398,1003.31C713.286,1003.23 713.154,1003.18 713.015,1003.17C712.836,1003.15 712.581,1003.13 712.416,1003.12Z" style="fill:rgb(200,59,44);"/>
            <path d="M707.145,1004.71C707.202,1004.65 707.283,1004.63 707.359,1004.65C707.435,1004.67 707.496,1004.73 707.522,1004.8C707.723,1005.39 708.126,1006.58 708.241,1006.91C708.261,1006.97 708.305,1007.02 708.362,1007.05C708.754,1007.22 710.326,1007.9 711.01,1008.2C711.076,1008.23 711.121,1008.29 711.129,1008.36C711.137,1008.43 711.106,1008.5 711.048,1008.55C710.483,1008.96 709.229,1009.88 708.81,1010.19C708.722,1010.25 708.669,1010.35 708.666,1010.46C708.651,1010.97 708.608,1012.44 708.587,1013.15C708.585,1013.23 708.54,1013.3 708.47,1013.33C708.4,1013.37 708.317,1013.36 708.253,1013.32C707.651,1012.88 706.374,1011.96 705.879,1011.61C705.754,1011.52 705.591,1011.5 705.451,1011.56C704.915,1011.81 703.561,1012.43 702.903,1012.73C702.831,1012.77 702.747,1012.76 702.684,1012.71C702.622,1012.66 702.592,1012.58 702.607,1012.5C702.802,1011.48 703.028,1010.48 703.333,1009.57C703.375,1009.44 703.364,1009.31 703.303,1009.19C703.098,1008.8 702.617,1007.89 702.352,1007.39C702.312,1007.32 702.313,1007.23 702.355,1007.15C702.396,1007.08 702.473,1007.03 702.558,1007.02C703.188,1006.98 704.414,1006.89 704.907,1006.86C705.042,1006.85 705.167,1006.78 705.25,1006.68C705.787,1006 706.447,1005.36 707.145,1004.71Z" style="fill:rgb(122,90,77);"/>
        </g>
    </g>
</svg>
