<?xml version="1.0" encoding="UTF-8" standalone="no"?>
<!DOCTYPE svg PUBLIC "-//W3C//DTD SVG 1.1//EN" "http://www.w3.org/Graphics/SVG/1.1/DTD/svg11.dtd">
<svg width="100%" height="100%" viewBox="0 0 500 500" style="fill-rule:evenodd;clip-rule:evenodd;stroke-linejoin:round;stroke-miterlimit:2;">
    <g transform="matrix(33.9655,0,0,39.8081,-22312.8,-26391.5)">
        <path d="M664.284,673.301C664.233,673.432 663.378,675.529 660.992,675.529C658.529,675.529 659.101,672.833 660.178,672.258C658.432,671.26 656.926,669.492 656.926,667.416C656.926,665.34 658.712,664.764 659.394,664.775C661.096,664.8 662.401,666.398 663.022,666.399C662.992,665.35 661.983,664.16 661.612,664.151C661.465,664.147 661.251,664.146 661.046,664.147C660.74,664.146 660.491,663.897 660.491,663.591C660.491,663.59 660.491,663.59 660.491,663.589C660.491,663.442 660.55,663.301 660.654,663.196C660.759,663.092 660.904,663.068 661.047,663.033C661.378,662.955 661.781,662.955 662.089,663.033C662.439,663.123 662.793,663.198 663.019,663.48C663.677,664.342 664.071,665.335 664.287,666.427L664.297,666.376C664.514,665.304 664.906,664.328 665.554,663.48C665.78,663.198 666.133,663.122 666.484,663.033C666.809,662.951 667.212,662.942 667.526,663.033C667.667,663.075 667.815,663.092 667.919,663.196C668.023,663.301 668.082,663.442 668.082,663.589C668.082,663.59 668.082,663.59 668.082,663.591C668.082,663.897 667.833,664.146 667.527,664.147C667.322,664.146 667.108,664.147 666.961,664.151C666.59,664.16 665.581,665.35 665.551,666.399C666.172,666.398 667.477,664.8 669.179,664.775C669.861,664.764 671.647,665.34 671.647,667.416C671.647,669.492 670.141,671.26 668.395,672.258C669.472,672.833 670.044,675.529 667.581,675.529C665.118,675.529 664.287,673.295 664.287,673.295L664.284,673.301Z" />
    </g>
</svg>
