<?xml version="1.0" encoding="UTF-8" standalone="no"?>
<!DOCTYPE svg PUBLIC "-//W3C//DTD SVG 1.1//EN" "http://www.w3.org/Graphics/SVG/1.1/DTD/svg11.dtd">
<svg width="100%" height="100%" viewBox="0 0 12 7" style="fill-rule:evenodd;clip-rule:evenodd;stroke-linejoin:round;stroke-miterlimit:2;">
    <g transform="matrix(1,0,0,1,-282.293,-660.296)">
        <g transform="matrix(0.768431,0,0,0.797925,64.3177,143.97)">
            <g transform="matrix(1,0,0,1,-399.796,-18.5251)">
                <path d="M683.458,669.85C683.479,667.732 685.385,665.61 689.343,665.611C692.066,665.612 694.73,666.315 695.098,668.516C695.847,667.691 696.175,666.381 698.549,666.425C697.834,667.84 697.339,668.528 697.339,669.875C697.347,671.202 697.839,671.921 698.549,673.325C696.175,673.369 695.847,672.059 695.098,671.234C693.393,673.051 692.066,674.138 689.343,674.139C686.123,674.139 683.458,672.002 683.458,669.875L683.458,669.85ZM685.963,667.531C686.636,667.531 687.183,668.108 687.183,668.819C687.183,669.53 686.636,670.107 685.963,670.107C685.289,670.107 684.743,669.53 684.743,668.819C684.743,668.108 685.289,667.531 685.963,667.531Z" />
            </g>
        </g>
    </g>
</svg>
