<?xml version="1.0" encoding="UTF-8" standalone="no"?>
<!DOCTYPE svg PUBLIC "-//W3C//DTD SVG 1.1//EN" "http://www.w3.org/Graphics/SVG/1.1/DTD/svg11.dtd">
<svg width="100%" height="100%" viewBox="0 0 7 7" version="1.1" xmlns="http://www.w3.org/2000/svg" xmlns:xlink="http://www.w3.org/1999/xlink" xml:space="preserve" xmlns:serif="http://www.serif.com/" style="fill-rule:evenodd;clip-rule:evenodd;stroke-linejoin:round;stroke-miterlimit:2;">
    <g transform="matrix(1,0,0,1,-442.682,-620.632)">
        <g transform="matrix(0.158093,0,0,0.158093,303.115,480.125)">
            <path d="M896.382,888.761L896.382,892.185L882.82,892.185L882.82,896.054L904.015,896.054C902.451,900.119 899.128,905.069 898.118,906.263C897.045,905.191 895.358,903.755 893.683,900.157C891.309,900.041 889.527,900.157 889.527,900.157C889.527,901.554 893.498,907.512 895.206,909.034C892.887,911.004 886.776,917.194 885.385,918.585L888.436,921.61C888.436,921.61 895.958,914.033 897.994,911.961C901.291,915.319 903.999,917.943 903.999,917.943C903.999,917.943 905.117,914.464 905.607,913.804C903.737,912.04 900.72,908.785 900.72,908.785C900.72,908.785 905.295,904.901 907.849,896.14C911.956,896.009 913.721,896.14 913.721,896.14L913.721,892.36L900.079,892.323L900.079,888.763L896.382,888.761Z" style="fill:rgb(134,121,103);"/>
        </g>
        <g transform="matrix(0.158093,0,0,0.158093,303.115,480.125)">
            <g transform="matrix(28.515,0,0,28.515,902.836,926.85)">
                <path d="M0.817,-0.051C0.817,-0.06 0.815,-0.07 0.81,-0.08L0.512,-0.729C0.493,-0.771 0.452,-0.792 0.411,-0.792C0.369,-0.792 0.328,-0.771 0.309,-0.729L0.011,-0.08C0.006,-0.07 0.004,-0.06 0.004,-0.051C0.004,-0.013 0.041,0.012 0.077,0.012C0.103,0.012 0.129,-0 0.142,-0.029L0.219,-0.199L0.6,-0.199L0.679,-0.029C0.692,-0 0.718,0.012 0.744,0.012C0.78,0.012 0.817,-0.013 0.817,-0.051ZM0.541,-0.332L0.279,-0.332L0.41,-0.62L0.541,-0.332Z" style="fill:rgb(134,121,103);fill-rule:nonzero;"/>
            </g>
        </g>
    </g>
</svg>
