<?xml version="1.0" encoding="UTF-8" standalone="no"?>
<!DOCTYPE svg PUBLIC "-//W3C//DTD SVG 1.1//EN" "http://www.w3.org/Graphics/SVG/1.1/DTD/svg11.dtd">
<svg width="100%" height="100%" viewBox="0 0 7 7" version="1.1" xmlns="http://www.w3.org/2000/svg" xmlns:xlink="http://www.w3.org/1999/xlink" xml:space="preserve" xmlns:serif="http://www.serif.com/" style="fill-rule:evenodd;clip-rule:evenodd;stroke-linejoin:round;stroke-miterlimit:2;">
    <g transform="matrix(1,0,0,1,-352.146,-626.161)">
        <g transform="matrix(1,0,0,1,-452.411,-12.1776)">
            <g id="Magnifying-Glass-Icon" serif:id="Magnifying Glass Icon" transform="matrix(0.206416,0,0,0.206416,718.56,490.924)">
                <path d="M438.144,740.423C435.997,741.733 433.476,742.488 430.78,742.488C422.963,742.488 416.617,736.142 416.617,728.325C416.617,720.508 422.963,714.161 430.78,714.161C438.597,714.161 444.944,720.508 444.944,728.325C444.944,731.09 444.15,733.671 442.777,735.852L449.112,742.444L444.419,746.954L438.144,740.423ZM430.78,717.583C436.709,717.583 441.522,722.396 441.522,728.325C441.522,734.253 436.709,739.067 430.78,739.067C424.852,739.067 420.038,734.253 420.038,728.325C420.038,722.396 424.852,717.583 430.78,717.583ZM427.54,733.214C427.991,733.697 427.977,734.45 427.508,734.915C427.438,734.985 427.366,735.056 427.295,735.126C426.79,735.627 425.984,735.653 425.448,735.185C424.942,734.744 424.314,734.196 423.771,733.722C423.545,733.524 423.453,733.214 423.534,732.925C423.616,732.636 423.857,732.42 424.153,732.37C424.432,732.323 424.719,732.275 424.991,732.229C425.87,732.081 426.764,732.383 427.372,733.034C427.429,733.095 427.485,733.155 427.54,733.214ZM422.713,727.981C422.697,728.458 422.875,728.921 423.206,729.265C423.537,729.609 423.992,729.804 424.469,729.807C424.508,729.808 424.546,729.808 424.585,729.808C425.056,729.811 425.51,729.625 425.844,729.292C426.179,728.959 426.366,728.506 426.364,728.034C426.361,727.166 426.358,726.158 426.355,725.436C426.353,724.839 426.666,724.285 427.179,723.979C427.409,723.841 427.662,723.69 427.902,723.547C428.144,723.403 428.306,723.156 428.342,722.877C428.378,722.598 428.285,722.317 428.088,722.116C428.065,722.092 428.042,722.068 428.018,722.044C427.287,721.296 426.119,721.19 425.266,721.796C425.042,721.955 424.809,722.12 424.581,722.282C423.497,723.051 422.834,724.283 422.791,725.613C422.765,726.38 422.737,727.241 422.713,727.981Z" style="fill:rgb(134,121,103);"/>
            </g>
        </g>
    </g>
</svg>
