<?xml version="1.0" encoding="UTF-8" standalone="no"?>
<!DOCTYPE svg PUBLIC "-//W3C//DTD SVG 1.1//EN" "http://www.w3.org/Graphics/SVG/1.1/DTD/svg11.dtd">
<svg width="100%" height="100%" viewBox="0 0 8 8" version="1.1" style="fill-rule:evenodd;clip-rule:evenodd;stroke-linejoin:round;stroke-miterlimit:2;">
    <g transform="matrix(0.629739,0,0,0.629739,-547.162,-481.718)">
        <path d="M874.86,764.949C878.165,764.949 880.848,767.634 880.848,770.941C880.848,774.248 878.165,776.932 874.86,776.932C871.555,776.932 868.872,774.248 868.872,770.941C868.872,767.634 871.555,764.949 874.86,764.949ZM874.159,774.154C871.797,773.889 871.132,772.994 871.246,770.967C871.27,770.55 871.37,770.154 871.533,769.792C871.614,769.617 871.679,769.434 871.727,769.247C871.831,768.922 871.981,768.336 872.072,767.977C872.125,767.772 872.15,767.561 872.146,767.349C872.142,767.083 872.136,766.713 872.133,766.49C872.132,766.445 872.152,766.401 872.188,766.373C872.224,766.345 872.271,766.335 872.315,766.347C872.619,766.426 873.224,766.584 873.554,766.67C873.704,766.71 873.859,766.733 874.015,766.74C874.257,766.751 874.645,766.769 874.968,766.783C875.34,766.8 875.711,766.74 876.059,766.608C876.431,766.467 876.911,766.284 877.197,766.176C877.253,766.154 877.316,766.162 877.366,766.196C877.415,766.23 877.445,766.286 877.446,766.346C877.451,766.688 877.461,767.303 877.469,767.839C877.479,768.504 877.645,769.157 877.952,769.746C878.328,770.192 878.458,770.768 878.424,771.371C878.333,773.001 877.336,774.015 875.715,774.193L875.672,774.565C875.672,774.565 876.146,774.625 876.386,774.656C876.419,774.66 876.45,774.679 876.469,774.708C876.487,774.736 876.493,774.772 876.483,774.805C876.471,774.847 876.457,774.894 876.446,774.934C876.428,774.995 876.365,775.031 876.304,775.015C876.094,774.96 875.657,774.845 875.657,774.845C875.657,774.845 875.802,775.133 875.883,775.293C875.897,775.32 875.899,775.352 875.889,775.38C875.878,775.409 875.857,775.432 875.829,775.444C875.816,775.45 875.802,775.456 875.789,775.462C875.734,775.486 875.67,775.461 875.645,775.406C875.559,775.217 875.382,774.824 875.382,774.824C875.382,774.824 875.26,774.828 875.165,774.831C875.137,774.832 875.11,774.821 875.091,774.801C875.071,774.781 875.061,774.753 875.063,774.725C875.065,774.697 875.067,774.667 875.068,774.64C875.072,774.587 875.115,774.546 875.168,774.547C875.255,774.547 875.372,774.547 875.372,774.547L875.389,774.232L874.464,774.184L874.461,774.475C874.461,774.475 874.79,774.763 874.962,774.913C874.988,774.936 875.002,774.968 875.001,775.001C875,775.035 874.985,775.067 874.958,775.088C874.951,775.093 874.944,775.099 874.937,775.105C874.893,775.14 874.83,775.137 874.789,775.099C874.671,774.987 874.445,774.774 874.445,774.774C874.445,774.774 874.419,775.101 874.403,775.294C874.4,775.329 874.382,775.361 874.354,775.382C874.325,775.402 874.29,775.41 874.256,775.401C874.234,775.396 874.212,775.391 874.192,775.386C874.134,775.372 874.095,775.318 874.1,775.259C874.115,775.083 874.144,774.745 874.144,774.745C874.144,774.745 873.893,774.914 873.743,775.015C873.715,775.034 873.68,775.04 873.648,775.032C873.615,775.023 873.588,775.001 873.572,774.971C873.562,774.952 873.552,774.932 873.543,774.913C873.513,774.856 873.535,774.786 873.591,774.755C873.771,774.655 874.133,774.456 874.133,774.456L874.159,774.154ZM875.663,773.287L876.284,772.37L875.069,772.353L875.663,773.287ZM874.048,773.265L874.669,772.348L873.453,772.331L874.048,773.265ZM873.172,772.327L873.793,771.41L872.577,771.393L873.172,772.327ZM876.435,772.149L877.056,771.232L875.841,771.215L876.435,772.149ZM874.783,772.126L875.404,771.209L874.189,771.192L874.783,772.126ZM874.717,769.443L874.062,768.967L874.717,768.087L875.37,768.967L874.717,769.443ZM873.099,767.908C873.391,767.893 873.643,768.19 873.662,768.571C873.68,768.951 873.458,769.272 873.166,769.287C872.874,769.301 872.622,769.004 872.604,768.623C872.585,768.243 872.807,767.922 873.099,767.908ZM876.338,767.802C876.641,767.819 876.871,768.12 876.851,768.474C876.832,768.827 876.569,769.1 876.265,769.083C875.962,769.066 875.732,768.765 875.751,768.412C875.771,768.058 876.034,767.785 876.338,767.802Z" style="fill:rgb(134,121,103);"/>
    </g>
</svg>
