<?xml version="1.0" encoding="UTF-8" standalone="no"?>
<!DOCTYPE svg PUBLIC "-//W3C//DTD SVG 1.1//EN" "http://www.w3.org/Graphics/SVG/1.1/DTD/svg11.dtd">
<svg width="100%" height="100%" viewBox="0 0 13 17" version="1.1" xmlns="http://www.w3.org/2000/svg" xmlns:xlink="http://www.w3.org/1999/xlink" xml:space="preserve" xmlns:serif="http://www.serif.com/" style="fill-rule:evenodd;clip-rule:evenodd;stroke-linejoin:round;stroke-miterlimit:2;">
    <g transform="matrix(1,0,0,1,-301.384,-655.233)">
        <g transform="matrix(0.768431,0,0,0.797925,64.3177,143.97)">
            <g transform="matrix(1,0,0,1,-400.556,-17.8901)">
                <path d="M717.489,675.364C716.045,675.366 716.309,677.393 716.6,679.841C716.342,679.841 713.584,680.266 713.622,674.871C711.688,674.871 711.73,676.16 712.034,678.22C711.404,678.22 709.107,677.838 709.064,674.527C709.03,672.023 711.063,671.736 712.534,671.713L712.534,670.904C710.907,669.624 709.876,667.726 709.876,665.61C709.876,661.758 713.291,658.631 717.498,658.631C721.704,658.631 725.12,661.758 725.12,665.61C725.12,667.759 724.056,669.683 722.385,670.964L722.385,671.712C723.861,671.726 725.966,671.979 725.932,674.527C725.888,677.838 723.592,678.22 722.962,678.22C723.266,676.16 723.308,674.871 721.374,674.871C721.412,680.266 718.654,679.841 718.396,679.841C718.688,677.388 718.952,675.358 717.498,675.364L717.489,675.364ZM714.905,669.921C715.58,669.921 716.127,670.51 716.127,671.236C716.127,671.961 715.58,672.55 714.905,672.55C714.23,672.55 713.683,671.961 713.683,671.236C713.683,670.51 714.23,669.921 714.905,669.921ZM720.07,669.921C720.744,669.921 721.292,670.51 721.292,671.236C721.292,671.961 720.744,672.55 720.07,672.55C719.395,672.55 718.847,671.961 718.847,671.236C718.847,670.51 719.395,669.921 720.07,669.921Z" style="fill:rgb(134,121,103);"/>
            </g>
        </g>
    </g>
</svg>
