<?xml version="1.0" encoding="UTF-8" standalone="no"?>
<!DOCTYPE svg PUBLIC "-//W3C//DTD SVG 1.1//EN" "http://www.w3.org/Graphics/SVG/1.1/DTD/svg11.dtd">
<svg width="100%" height="100%" viewBox="0 0 9 8" version="1.1" xmlns="http://www.w3.org/2000/svg" xmlns:xlink="http://www.w3.org/1999/xlink" xml:space="preserve" xmlns:serif="http://www.serif.com/" style="fill-rule:evenodd;clip-rule:evenodd;stroke-linejoin:round;stroke-miterlimit:2;">
    <g transform="matrix(1,0,0,1,-916.867,-795.024)">
        <path d="M920.822,795.136C920.864,795.066 920.94,795.024 921.022,795.024C921.104,795.024 921.18,795.066 921.222,795.136L922.421,797.119C922.456,797.177 922.502,797.227 922.557,797.267C922.612,797.307 922.674,797.335 922.74,797.351L924.996,797.878C925.076,797.897 925.14,797.956 925.165,798.034C925.191,798.112 925.173,798.197 925.12,798.259L923.604,800.012C923.56,800.063 923.527,800.123 923.506,800.187C923.485,800.251 923.477,800.319 923.483,800.387L923.678,802.696C923.685,802.777 923.649,802.856 923.583,802.904C923.517,802.952 923.43,802.962 923.355,802.931L921.219,802.031C921.157,802.005 921.09,801.992 921.022,801.992C920.954,801.992 920.887,802.005 920.825,802.031L918.689,802.931C918.614,802.962 918.528,802.952 918.461,802.904C918.395,802.856 918.359,802.777 918.366,802.696L918.561,800.387C918.567,800.319 918.559,800.251 918.538,800.187C918.517,800.123 918.484,800.063 918.44,800.012L916.924,798.259C916.871,798.197 916.854,798.112 916.879,798.034C916.904,797.956 916.968,797.897 917.048,797.878L919.304,797.351C919.37,797.335 919.432,797.307 919.487,797.267C919.542,797.227 919.588,797.177 919.623,797.119L920.822,795.136Z" style="fill:rgb(122,90,77);"/>
    </g>
</svg>
